<?xml version="1.0" encoding="utf-8"?>
<!-- Generator: Adobe Illustrator 24.1.0, SVG Export Plug-In . SVG Version: 6.00 Build 0)  -->
<svg version="1.1" id="Layer_1" xmlns="http://www.w3.org/2000/svg" xmlns:xlink="http://www.w3.org/1999/xlink" x="0px" y="0px"
	 viewBox="0 0 515.36 347.45" style="enable-background:new 0 0 515.36 347.45;" xml:space="preserve">
<style type="text/css">
	.st0{fill:#FFFFFF;}
</style>
<g>
	<g>
		<path class="st0" d="M443.99,134.97V89.73h5.17c1.45,0,2.31-0.92,2.31-2.45V75.86c0-1.47-0.93-2.45-2.31-2.45h-35.13
			c-2.08,0-2.31,1.71-2.31,2.45v11.42c0,1.63,0.78,2.45,2.31,2.45h4.6v48.48c0,9.61-1.24,22.38-11.94,22.38
			c-10.45,0-11.66-12.77-11.66-22.38V89.73h4.61c1.45,0,2.31-0.92,2.31-2.45V75.86c0-1.47-0.93-2.45-2.31-2.45h-35.98
			c-2.08,0-2.31,1.71-2.31,2.45v11.42c0,1.63,0.78,2.45,2.31,2.45h5.03v44.95c0,16.63,3.22,28.14,9.86,35.2
			c5.96,6.34,14.73,9.3,27.58,9.3C431.97,179.18,443.99,165.13,443.99,134.97z"/>
		<path class="st0" d="M362.46,144.01c-0.19-0.9-0.34-1.2-2.06-1.2h-7.76c-0.99,0-1.32,0-1.32,1.75c0,14.14-0.93,18.01-4.32,18.01
			c-3.77,0-4.04-5.26-4.04-13.91c-0.27-12.1-5.04-19.05-14.99-21.83l-6.79-1.9l6.98-1.03c9.43-1.39,25.24-6.49,25.24-25.04
			c0-18.31-10.46-25.44-37.29-25.44h-41.76c-2.08,0-2.31,1.71-2.31,2.45v11.42c0,1.63,0.78,2.45,2.31,2.45h6.44v71h-6.44
			c-2.08,0-2.31,1.71-2.31,2.45v11.42c0,1.63,0.78,2.45,2.31,2.45h37.95c1.45,0,2.31-0.92,2.31-2.45v-11.42
			c0-1.47-0.93-2.45-2.31-2.45h-5.87v-29.24h3.48c8.11,0.37,8.57,7.82,8.69,20.96c0.13,17.4,8,26.59,22.77,26.59
			c14.76,0,21.64-8.22,21.64-25.87C363,148.37,362.86,145.97,362.46,144.01z M308.77,117.14h-2.34V89.59h2.34
			c8.35,0,16.88,1.54,16.88,12.93C325.65,112.22,319.97,117.14,308.77,117.14z"/>
		<path class="st0" d="M226.23,73.29c-28.68,0-43.22,17.5-43.22,52.03c0,34.34,14.4,51.75,42.8,51.75
			c14.31,0,25.23-4.47,32.47-13.29c7.13-8.7,10.75-21.64,10.75-38.46C269.04,90.3,255.03,73.29,226.23,73.29z M226.23,159.69
			c-13.21,0-14.9-18.23-14.9-34.1c0-17.47,1.77-35.33,14.9-35.33c10.02,0,14.48,10.89,14.48,35.33
			C240.72,149.81,236.52,159.69,226.23,159.69z"/>
		<path class="st0" d="M105.15,160.74c-2.08,0-2.31,1.71-2.31,2.45v11.42c0,1.63,0.78,2.45,2.31,2.45h69.55
			c1.86,0,3.01-0.58,3.01-3.44v-33.43c0-1.05-0.34-1.75-2.03-1.75h-14.95c-1.45,0-1.75,0.61-1.75,1.6v20.69h-21.34v-71h8.13
			c1.45,0,2.31-0.92,2.31-2.45V75.86c0-1.47-0.93-2.45-2.31-2.45h-40.63c-2.08,0-2.31,1.71-2.31,2.45v11.42
			c0,1.63,0.78,2.45,2.31,2.45h6.3v71H105.15z"/>
	</g>
	<g>
		<path d="M226.35,90.27c-13.13,0-14.9,17.86-14.9,35.33c0,15.88,1.69,34.1,14.9,34.1c10.29,0,14.48-9.88,14.48-34.1
			C240.83,101.16,236.36,90.27,226.35,90.27z"/>
		<path d="M325.77,102.53c0-11.39-8.53-12.93-16.88-12.93h-2.34v27.55h2.34C320.08,117.15,325.77,112.23,325.77,102.53z"/>
		<path d="M177.76,238.55c0,3.39,1.27,5.09,3.6,5.09c3.39,0,7-3.71,7-11.24v-3.92C181.15,229.86,177.76,233.36,177.76,238.55z"/>
		<path d="M123.44,205.16c-4.03,0-5.83,3.6-5.83,9.75c0,6.36,1.59,9.65,5.62,9.65c4.03,0,5.94-3.29,5.94-9.65
			C129.17,208.77,127.47,205.16,123.44,205.16z"/>
		<path d="M114.54,259.97c0,4.13,3.29,5.72,8.69,5.72c5.41,0,9.33-1.59,9.33-6.25c0-4.03-2.44-5.19-7.63-5.19h-6.78
			C116.24,255.41,114.54,257,114.54,259.97z"/>
		<path d="M456.98,73.49c-0.1-1.73-1.92-4.13-3.56-4.69c-1.48-0.5-6.57-0.73-6.57-0.73h-21.76H299.63h-68.3h-79.48h-45.7
			c0,0-1.85-0.18-3.51,0.44c-1.18,0.44-2.13,1.54-2.84,2.28c-7.6,8.04-30.73,37.8-30.73,37.8c-0.36,0.24-0.67,0.54-0.96,0.87
			l-0.69,0.63l0.14,0.15c-0.47,0.83-0.74,1.81-0.74,2.91v11.42c0,3.26,2.13,5.45,5.31,5.45h3.3v38.18c0,0-8.33,4.87-8.87,6.93
			c-1.41,5.34-0.96,11.67-0.92,19.93c0.02,3.81,2.75,4.71,6.34,4.39c-3.18,9.26-4.95,24.58,3.04,30.19
			c1.49,1.04,1.32,3.32-0.28,4.19c-1.11,0.61-2.2,1.35-3.05,2.21c-5.57,5.67-5.75,15.33,1.38,18.18c1.53,0.61,1.74,1.3,0.76,2.62
			c-3.36,4.57-8.3,14.24-3.34,27.44c7.68,20.43,40.22,17.53,52.89,11.87c18.68-8.34,22.07-15.55,28.11-20
			c0.86-0.63,4.37,4.59,13.64,4.92c12.58,0.45,17.31-4.75,22.63-15.42c0.95-1.9,1.53,0.21,1.86,1.89c0.38,1.92,1.73,4.98,3.13,6.31
			c5.42,5.12,16.75,6.3,21.86-3.65c5.9-11.48,3.62-1.05,4.18,3.18c0.5,3.77,6.21,3.19,8.82,3.45c10.75,1.07,66.78,1.95,82.09-0.46
			c5.92-0.93,8.34-16.29,10.44-16c2.93,0.41,1.42,13.91,14.93,16.06c18.8,2.99,26.55-2.87,33.55-11.51
			c2.09-2.58,4.61-10.94,6.11-1.05c1.02,6.67,3.53,10.21,8.62,10.6c0,0,29.37,5.07,38.53-2.39c10.92-8.9,13.7-15.67,15.05-25.42
			c1.61-11.67-0.84-39.76,0.88-51.6c0.7-4.82,2.25-8.29,5.93-15.89c2.68-5.55,3.84-11.74,4.7-17.69c1.29-9.03,1.76-16.69,1.82-20.9
			c0.18-12.65,0.39-20.71-0.1-26.63c-0.42-5.12-0.44-12.31-0.21-15.35c0.12-1.56,1.34-2.38,3.14-2.69c2.38-0.4,4.5-4.13,4.53-6.84
			C457.63,87.46,457.53,82.52,456.98,73.49z M102.96,163.2c0-0.74,0.22-2.45,2.31-2.45h6.3v-71h-6.3c-1.53,0-2.31-0.82-2.31-2.45
			V75.87c0-0.74,0.22-2.45,2.31-2.45h40.63c1.38,0,2.31,0.99,2.31,2.45v11.42c0,1.54-0.86,2.45-2.31,2.45h-8.13v71h21.34v-20.69
			c0-0.99,0.29-1.6,1.75-1.6h14.95c1.68,0,2.03,0.7,2.03,1.75v33.43c0,2.86-1.15,3.44-3.01,3.44h-69.55c-1.53,0-2.31-0.82-2.31-2.45
			V163.2z M150.76,202.04c-9.86-0.06-9.84-9.35-10.37-11.47c-1.27,1.06-5.7,4.42-6.34,6.43c7,2.76,11.45,8.59,11.45,17.81
			c0,13.36-9.01,19.93-22.26,19.93c-1.91,0-3.6-0.11-5.3-0.42c-1.17,0.85-1.59,2.12-1.48,3.29c0.11,1.91,1.8,2.86,5.3,2.86h8.69
			c10.92,0,18.34,4.77,18.34,16.96c0,12.93-10.49,18.76-26.29,18.76c-15.37,0-24.17-3.18-24.17-13.36c0-5.09,3.5-9.12,8.16-10.92
			c-3.29-2.12-5.09-5.41-5.09-9.96c0-5.3,3.29-9.22,7.1-11.24c-4.56-3.29-7.21-8.59-7.21-15.9c0-13.36,9.33-19.72,22.05-19.72
			c1.48,0,2.97,0.11,4.35,0.21c3.67-6.51,11.94-10.04,18.83-10.04c4.56,0,11.36,0.57,11.76,7.2
			C158.6,197.97,156.91,202.08,150.76,202.04z M218.15,240.67c-0.53,10.39-5.51,14.42-13.99,14.42c-6.57,0-11.13-3.39-12.61-9.01
			c-3.07,5.83-8.9,9.33-16.32,9.33c-9.33,0-14.2-5.51-14.2-14.42c0-15.26,15.48-20.03,27.35-21.41v-3.18c0-7.21-2.44-9.54-7.21-9.54
			c-2.23,0-4.03,0.42-5.41,0.95c1.27,1.06,1.91,2.65,1.91,4.98c0,3.5-2.76,6.57-7.63,6.57c-4.66,0-7.21-2.97-7.21-8.27
			c0-9.33,9.22-16.01,22.68-16.01c13.78,0,20.35,6.04,20.35,21.41c0,6.68-1.06,17.81-1.06,22.47c0,4.03,0.64,5.3,2.01,5.3
			c1.48,0,2.23-1.38,2.33-5.3c0.11-3.07-0.11-6.78-0.11-8.27c0-1.48,0.85-2.12,2.12-2.12h4.56c1.38,0,2.01,0.53,2.23,1.8
			C218.15,232.41,218.36,235.9,218.15,240.67z M183.12,125.32c0-34.52,14.54-52.03,43.22-52.03c28.8,0,42.8,17.02,42.8,52.03
			c0,16.82-3.62,29.76-10.75,38.46c-7.23,8.82-18.16,13.29-32.47,13.29C197.53,177.07,183.12,159.66,183.12,125.32z M317.59,251.06
			c0,1.8-1.06,2.86-2.76,2.86h-23.11c-1.7,0-2.65-1.06-2.65-2.86v-6.57c0-1.48,0.95-2.86,2.65-2.86h2.44v-22.79
			c0-7.42-1.06-10.49-5.41-10.49c-4.24,0-6.78,3.92-6.78,11.77v21.52h1.8c1.7,0,2.76,1.38,2.76,2.86v6.57c0,1.8-1.06,2.86-2.76,2.86
			h-20.99c-1.8,0-2.76-1.06-2.76-2.86v-6.57c0-1.48,0.95-2.86,2.76-2.86h1.91v-22.79c0-7.84-1.59-10.49-5.72-10.49
			c-4.13,0-6.57,3.92-6.57,11.34v21.94h2.44c1.7,0,2.76,1.38,2.76,2.86v6.57c0,1.8-1.06,2.86-2.76,2.86h-23.43
			c-1.8,0-2.76-1.06-2.76-2.86v-6.57c0-1.48,0.95-2.86,2.76-2.86h3.5v-32.86h-3.5c-1.8,0-2.76-1.06-2.76-2.86v-6.57
			c0-1.48,0.95-2.86,2.76-2.86h14.1c1.91,0,2.76,1.06,2.97,3.07l0.64,5.72c2.86-7,9.22-10.07,15.58-10.07c7,0,12.08,2.65,14.63,9.22
			c2.76-6.47,8.9-9.22,15.37-9.22c10.81,0,16.85,6.04,16.85,20.88v25.55h3.29c1.7,0,2.76,1.38,2.76,2.86V251.06z M318.71,152.46
			c-0.12-13.13-0.59-20.58-8.69-20.96h-3.48v29.24h5.87c1.38,0,2.31,0.99,2.31,2.45v11.42c0,1.54-0.87,2.45-2.31,2.45h-37.95
			c-1.53,0-2.31-0.82-2.31-2.45V163.2c0-0.74,0.22-2.45,2.31-2.45h6.44v-71h-6.44c-1.53,0-2.31-0.82-2.31-2.45V75.87
			c0-0.74,0.22-2.45,2.31-2.45h41.76c26.84,0,37.29,7.13,37.29,25.44c0,18.55-15.82,23.65-25.24,25.04l-6.98,1.03l6.79,1.9
			c9.95,2.79,14.72,9.74,14.99,21.83c0,8.66,0.27,13.91,4.04,13.91c3.39,0,4.32-3.87,4.32-18.01c0-1.75,0.33-1.75,1.32-1.75h7.76
			c1.72,0,1.86,0.29,2.06,1.2c0.39,1.96,0.53,4.36,0.53,9.16c0,17.65-6.88,25.87-21.64,25.87
			C326.71,179.05,318.84,169.86,318.71,152.46z M375.75,223.29c-0.11,4.03-1.91,5.3-4.88,5.3h-24.7c0.32,9.65,2.86,14.2,8.06,14.2
			c4.13,0,6.78-2.01,7.84-7c0.42-1.91,1.06-2.86,3.39-2.86h6.47c1.7,0,2.65,0.64,2.65,2.54c0,10.28-6.89,19.93-22.05,19.93
			c-16.43,0-24.59-10.81-24.59-29.68c0-18.44,9.12-30.63,25.76-30.63C369.92,195.09,375.96,206.01,375.75,223.29z M414.08,255.41
			c-6.04,0-10.71-2.12-13.57-5.83l-0.64,2.33c-0.53,1.59-1.48,2.01-3.07,2.01h-4.56c-1.7,0-2.44-1.06-2.44-2.44v-16.43
			c0-1.48,0.74-2.44,2.23-2.44h7.1c1.38,0,2.33,0.64,2.65,2.65c0.85,5.94,4.03,8.8,9.01,8.8c3.29,0,6.04-1.17,6.04-4.35
			c0-3.82-2.97-5.19-9.86-7.31c-8.9-2.54-16.22-8.16-16.22-19.61c0-11.98,8.59-17.7,17.38-17.7c5.62,0,9.86,1.8,12.51,5.72
			l0.64-2.44c0.53-1.48,1.06-1.91,2.65-1.91h4.98c1.59,0,2.12,0.95,2.12,2.23v15.48c0,1.59-0.74,2.44-2.33,2.44h-6.57
			c-1.7,0-2.65-0.74-2.97-2.44c-0.64-5.72-4.03-8.16-7.74-8.16c-3.29,0-5.3,1.48-5.3,4.56c0,3.29,2.12,5.19,9.54,7.31
			c9.12,2.54,16.75,7.53,16.75,19.19C432.42,248.94,424.04,255.41,414.08,255.41z M451.59,87.29c0,1.54-0.86,2.45-2.31,2.45h-5.17
			v45.23c0,30.16-12.03,44.21-37.86,44.21c-12.85,0-21.62-2.95-27.58-9.3c-6.63-7.05-9.86-18.57-9.86-35.2V89.74h-5.03
			c-1.53,0-2.31-0.82-2.31-2.45V75.87c0-0.74,0.22-2.45,2.31-2.45h35.98c1.38,0,2.31,0.99,2.31,2.45v11.42
			c0,1.54-0.86,2.45-2.31,2.45h-4.61v48.48c0,9.61,1.21,22.38,11.66,22.38c10.7,0,11.94-12.77,11.94-22.38V89.74h-4.6
			c-1.53,0-2.31-0.82-2.31-2.45V75.87c0-0.74,0.22-2.45,2.31-2.45h35.13c1.38,0,2.31,0.99,2.31,2.45V87.29z"/>
		<path d="M353.39,206.75c-3.92,0-6.36,3.5-7.1,12.19H359C358.9,209.93,357.1,206.75,353.39,206.75z"/>
	</g>
	<g>
		<path class="st0" d="M123.34,195.09c1.48,0,2.97,0.11,4.35,0.21c3.67-6.51,11.94-10.04,18.83-10.04c4.56,0,11.36,0.57,11.76,7.2
			c0.33,5.51-1.36,9.61-7.51,9.58c-9.86-0.06-9.84-9.35-10.37-11.47c-1.27,1.06-5.7,4.42-6.34,6.43c7,2.76,11.45,8.59,11.45,17.81
			c0,13.36-9.01,19.93-22.26,19.93c-1.91,0-3.6-0.11-5.3-0.42c-1.17,0.85-1.59,2.12-1.48,3.29c0.11,1.91,1.8,2.86,5.3,2.86h8.69
			c10.92,0,18.34,4.77,18.34,16.96c0,12.93-10.49,18.76-26.29,18.76c-15.37,0-24.17-3.18-24.17-13.36c0-5.09,3.5-9.12,8.16-10.92
			c-3.29-2.12-5.09-5.41-5.09-9.96c0-5.3,3.29-9.22,7.1-11.24c-4.56-3.29-7.21-8.59-7.21-15.9
			C101.29,201.45,110.62,195.09,123.34,195.09z M123.23,265.69c5.41,0,9.33-1.59,9.33-6.25c0-4.03-2.44-5.19-7.63-5.19h-6.78
			c-1.91,1.17-3.6,2.76-3.6,5.72C114.54,264.1,117.83,265.69,123.23,265.69z M129.17,214.92c0-6.15-1.7-9.75-5.72-9.75
			c-4.03,0-5.83,3.6-5.83,9.75c0,6.36,1.59,9.65,5.62,9.65C127.26,224.56,129.17,221.28,129.17,214.92z"/>
		<path class="st0" d="M170.02,219.37c-4.66,0-7.21-2.97-7.21-8.27c0-9.33,9.22-16.01,22.68-16.01c13.78,0,20.35,6.04,20.35,21.41
			c0,6.68-1.06,17.81-1.06,22.47c0,4.03,0.64,5.3,2.01,5.3c1.48,0,2.23-1.38,2.33-5.3c0.11-3.07-0.11-6.78-0.11-8.27
			c0-1.48,0.85-2.12,2.12-2.12h4.56c1.38,0,2.01,0.53,2.23,1.8c0.21,2.01,0.42,5.51,0.21,10.28c-0.53,10.39-5.51,14.42-13.99,14.42
			c-6.57,0-11.13-3.39-12.61-9.01c-3.07,5.83-8.9,9.33-16.32,9.33c-9.33,0-14.2-5.51-14.2-14.42c0-15.26,15.48-20.03,27.35-21.41
			v-3.18c0-7.21-2.44-9.54-7.21-9.54c-2.23,0-4.03,0.42-5.41,0.95c1.27,1.06,1.91,2.65,1.91,4.98
			C177.65,216.29,174.9,219.37,170.02,219.37z M181.36,243.64c3.39,0,7-3.71,7-11.24v-3.92c-7.21,1.38-10.6,4.88-10.6,10.07
			C177.76,241.95,179.03,243.64,181.36,243.64z"/>
		<path class="st0" d="M281.97,241.63h1.8c1.7,0,2.76,1.38,2.76,2.86v6.57c0,1.8-1.06,2.86-2.76,2.86h-20.99
			c-1.8,0-2.76-1.06-2.76-2.86v-6.57c0-1.48,0.95-2.86,2.76-2.86h1.91v-22.79c0-7.84-1.59-10.49-5.72-10.49
			c-4.13,0-6.57,3.92-6.57,11.34v21.94h2.44c1.7,0,2.76,1.38,2.76,2.86v6.57c0,1.8-1.06,2.86-2.76,2.86h-23.43
			c-1.8,0-2.76-1.06-2.76-2.86v-6.57c0-1.48,0.95-2.86,2.76-2.86h3.5v-32.86h-3.5c-1.8,0-2.76-1.06-2.76-2.86v-6.57
			c0-1.48,0.95-2.86,2.76-2.86h14.1c1.91,0,2.76,1.06,2.97,3.07l0.64,5.72c2.86-7,9.22-10.07,15.58-10.07c7,0,12.08,2.65,14.63,9.22
			c2.76-6.47,8.9-9.22,15.37-9.22c10.81,0,16.85,6.04,16.85,20.88v25.55h3.29c1.7,0,2.76,1.38,2.76,2.86v6.57
			c0,1.8-1.06,2.86-2.76,2.86h-23.11c-1.7,0-2.65-1.06-2.65-2.86v-6.57c0-1.48,0.95-2.86,2.65-2.86h2.44v-22.79
			c0-7.42-1.06-10.49-5.41-10.49c-4.24,0-6.78,3.92-6.78,11.77V241.63z"/>
		<path class="st0" d="M352.54,255.41c-16.43,0-24.59-10.81-24.59-29.68c0-18.44,9.12-30.63,25.76-30.63
			c16.22,0,22.26,10.92,22.05,28.2c-0.11,4.03-1.91,5.3-4.88,5.3h-24.7c0.32,9.65,2.86,14.2,8.06,14.2c4.13,0,6.78-2.01,7.84-7
			c0.42-1.91,1.06-2.86,3.39-2.86h6.47c1.7,0,2.65,0.64,2.65,2.54C374.59,245.76,367.7,255.41,352.54,255.41z M346.28,218.94H359
			c-0.11-9.01-1.91-12.19-5.62-12.19C349.46,206.75,347.03,210.25,346.28,218.94z"/>
		<path class="st0" d="M410.79,244.07c3.29,0,6.04-1.17,6.04-4.35c0-3.82-2.97-5.19-9.86-7.31c-8.9-2.54-16.22-8.16-16.22-19.61
			c0-11.98,8.59-17.7,17.38-17.7c5.62,0,9.86,1.8,12.51,5.72l0.64-2.44c0.53-1.48,1.06-1.91,2.65-1.91h4.98
			c1.59,0,2.12,0.95,2.12,2.23v15.48c0,1.59-0.74,2.44-2.33,2.44h-6.57c-1.7,0-2.65-0.74-2.97-2.44c-0.64-5.72-4.03-8.16-7.74-8.16
			c-3.29,0-5.3,1.48-5.3,4.56c0,3.29,2.12,5.19,9.54,7.31c9.12,2.54,16.75,7.53,16.75,19.19c0,11.87-8.37,18.34-18.34,18.34
			c-6.04,0-10.71-2.12-13.57-5.83l-0.64,2.33c-0.53,1.59-1.48,2.01-3.07,2.01h-4.56c-1.7,0-2.44-1.06-2.44-2.44v-16.43
			c0-1.48,0.74-2.44,2.23-2.44h7.1c1.38,0,2.33,0.64,2.65,2.65C402.63,241.2,405.81,244.07,410.79,244.07z"/>
	</g>
</g>
</svg>
