<?xml version="1.0" encoding="UTF-8" standalone="no"?>
<!-- Created with Inkscape (http://www.inkscape.org/) -->

<svg
   xmlns:dc="http://purl.org/dc/elements/1.1/"
   xmlns:cc="http://creativecommons.org/ns#"
   xmlns:rdf="http://www.w3.org/1999/02/22-rdf-syntax-ns#"
   xmlns:svg="http://www.w3.org/2000/svg"
   xmlns="http://www.w3.org/2000/svg"
   xmlns:sodipodi="http://sodipodi.sourceforge.net/DTD/sodipodi-0.dtd"
   xmlns:inkscape="http://www.inkscape.org/namespaces/inkscape"
   width="31.2281mm"
   height="30.857346mm"
   viewBox="0 0 31.2281 30.857346"
   version="1.1"
   id="svg8"
   inkscape:version="0.92.4 (5da689c313, 2019-01-14)"
   sodipodi:docname="teachericon.svg">
  <defs
     id="defs2">
    <inkscape:path-effect
       effect="join_type"
       id="path-effect4538"
       is_visible="true"
       linecap_type="round"
       line_width="5"
       linejoin_type="extrp_arc"
       miter_limit="100"
       attempt_force_join="true" />
  </defs>
  <sodipodi:namedview
     id="base"
     pagecolor="#ffffff"
     bordercolor="#666666"
     borderopacity="1.0"
     inkscape:pageopacity="0.0"
     inkscape:pageshadow="2"
     inkscape:zoom="2.8"
     inkscape:cx="59.52819"
     inkscape:cy="105.73343"
     inkscape:document-units="mm"
     inkscape:current-layer="layer1"
     showgrid="false"
     showguides="true"
     inkscape:window-width="2560"
     inkscape:window-height="1361"
     inkscape:window-x="2391"
     inkscape:window-y="-9"
     inkscape:window-maximized="1"
     fit-margin-top="0"
     fit-margin-left="0"
     fit-margin-right="0"
     fit-margin-bottom="0" />
  <metadata
     id="metadata5">
    <rdf:RDF>
      <cc:Work
         rdf:about="">
        <dc:format>image/svg+xml</dc:format>
        <dc:type
           rdf:resource="http://purl.org/dc/dcmitype/StillImage" />
        <dc:title></dc:title>
      </cc:Work>
    </rdf:RDF>
  </metadata>
  <g
     inkscape:label="Layer 1"
     inkscape:groupmode="layer"
     id="layer1"
     transform="translate(-12.568662,-7.2253913)">
    <path
       style="fill:#000000;fill-opacity:1;stroke:#000000;stroke-width:0.26458332px;stroke-linecap:butt;stroke-linejoin:miter;stroke-opacity:1"
       d="m 12.933057,30.147447 c 0.01107,-2.168614 0.03341,-9.220796 0.03341,-9.220796 0,0 0.137243,-0.640635 0.350077,-0.869283 0.207076,-0.222463 0.819227,-0.400249 0.819227,-0.400249 l 11.926903,-0.100227 c 0,0 2.9216,-2.02829 3.608138,-2.472243 0.686538,-0.443953 1.358548,-0.11413 1.74874,0.332919 0.370573,0.424571 0.548739,1.362755 0.08874,1.68831 -1.540753,1.090435 -4.510175,3.123711 -4.510175,3.123711 l -4.977893,0.06682 c 0,0 0.234059,13.456492 0.200453,14.708174 -0.01404,0.523071 -0.839231,0.952243 -1.403276,0.945787 -0.545659,-0.0062 -1.331598,-0.500371 -1.336237,-0.945787 -0.022,-2.112514 -0.03341,-7.926212 -0.03341,-7.926212 l -0.701583,0.03341 c 0,0 -0.05493,5.568639 -0.116933,7.892802 -0.01216,0.455676 -0.826047,0.947995 -1.384093,0.94199 -0.541064,-0.0058 -1.314507,-0.464835 -1.322011,-0.94199 -0.03305,-2.101862 -0.05011,-14.37409 -0.05011,-14.37409 l -0.668173,0.0167 c 0,0 0.03203,4.177571 0,7.533661 -0.804382,1.218777 -1.664803,1.116242 -2.271794,-0.03341 z"
       id="path4529"
       inkscape:connector-curvature="0"
       sodipodi:nodetypes="ccacczasccsssccsssccccc" />
    <ellipse
       style="opacity:1;vector-effect:none;fill:#000000;fill-opacity:1;stroke:none;stroke-width:0.26499999;stroke-linecap:round;stroke-linejoin:miter;stroke-miterlimit:4;stroke-dasharray:none;stroke-dashoffset:0;stroke-opacity:1;paint-order:markers stroke fill"
       id="path4531"
       cx="19.005087"
       cy="16.533405"
       rx="2.5307083"
       ry="2.455539" />
    <path
       style="opacity:1;vector-effect:none;fill:none;fill-opacity:1;stroke:#000000;stroke-width:2.57399988;stroke-linecap:round;stroke-linejoin:round;stroke-miterlimit:31;stroke-dasharray:none;stroke-dashoffset:0;stroke-opacity:1;paint-order:markers stroke fill"
       d="M 13.855791,16.126771 V 9.4809542 c 0,-0.536584 0.431979,-0.968563 0.968564,-0.968563 h 26.716843 c 0.536584,0 0.968564,0.431979 0.968564,0.968563 V 26.073404 c 0,0.536584 -0.43198,0.968564 -0.968564,0.968564 H 25.135417"
       id="rect4540"
       inkscape:connector-curvature="0"
       sodipodi:nodetypes="cssssssc" />
  </g>
</svg>
