<?xml version="1.0" encoding="UTF-8" standalone="no"?>
<!-- Created with Inkscape (http://www.inkscape.org/) -->

<svg
   xmlns:dc="http://purl.org/dc/elements/1.1/"
   xmlns:cc="http://creativecommons.org/ns#"
   xmlns:rdf="http://www.w3.org/1999/02/22-rdf-syntax-ns#"
   xmlns:svg="http://www.w3.org/2000/svg"
   xmlns="http://www.w3.org/2000/svg"
   xmlns:sodipodi="http://sodipodi.sourceforge.net/DTD/sodipodi-0.dtd"
   xmlns:inkscape="http://www.inkscape.org/namespaces/inkscape"
   width="210mm"
   height="297mm"
   viewBox="0 0 210 297"
   version="1.1"
   id="svg8"
   inkscape:version="0.92.4 (5da689c313, 2019-01-14)"
   sodipodi:docname="thorhamlogo.svg">
  <defs
     id="defs2" />
  <sodipodi:namedview
     id="base"
     pagecolor="#ffffff"
     bordercolor="#666666"
     borderopacity="1.0"
     inkscape:pageopacity="0.0"
     inkscape:pageshadow="2"
     inkscape:zoom="1.4"
     inkscape:cx="379.29993"
     inkscape:cy="792.92686"
     inkscape:document-units="mm"
     inkscape:current-layer="layer1"
     showgrid="false"
     inkscape:snap-global="false"
     inkscape:window-width="1920"
     inkscape:window-height="1017"
     inkscape:window-x="-8"
     inkscape:window-y="-8"
     inkscape:window-maximized="1" />
  <metadata
     id="metadata5">
    <rdf:RDF>
      <cc:Work
         rdf:about="">
        <dc:format>image/svg+xml</dc:format>
        <dc:type
           rdf:resource="http://purl.org/dc/dcmitype/StillImage" />
        <dc:title></dc:title>
      </cc:Work>
    </rdf:RDF>
  </metadata>
  <g
     inkscape:label="Layer 1"
     inkscape:groupmode="layer"
     id="layer1">
    <path
       style="opacity:1;vector-effect:none;fill:#00ffff;fill-opacity:1;stroke:#171616;stroke-width:2.80062985;stroke-linecap:round;stroke-linejoin:miter;stroke-miterlimit:4;stroke-dasharray:none;stroke-dashoffset:0;stroke-opacity:1;paint-order:markers stroke fill"
       d="m 398.90039,169.38867 c -0.15178,0.074 -0.30348,0.14826 -0.45508,0.22266 -66.38661,36.97596 -107.70788,106.84565 -108.1289,182.83398 -65.36496,37.12199 -105.99026,106.26741 -106.59961,181.43555 0.005,0.16863 0.0102,0.33725 0.0156,0.50586 70.87062,34.98019 149.27219,35.29523 212.27735,1.8418 75.55771,50.37032 162.52395,20.92993 208.89648,1.125 0.0106,-0.16861 0.021,-0.33723 0.0312,-0.50586 C 605.36835,462.9986 567.08878,394.31875 504.05273,355.84375 516.09668,272.48109 418.33034,183.27849 398.90039,169.38867 Z m -2.05664,35.55078 c 0.13032,0.0851 0.26053,0.17041 0.39063,0.25586 4.92617,3.4727 9.67559,7.18958 14.23046,11.13672 4.55459,3.94659 8.90899,8.11847 13.04688,12.5 4.13815,4.38289 8.05449,8.97 11.73437,13.74414 3.68019,4.77305 7.11938,9.72715 10.30469,14.84375 3.18543,5.1174 6.11291,10.39091 8.77149,15.80078 2.65857,5.40861 5.04501,10.94677 7.15039,16.59375 2.1051,5.64827 3.92638,11.39829 5.45703,17.22852 1.53031,5.82902 2.76818,11.73092 3.70898,17.68359 0.7734,5.12557 1.326,10.28202 1.65625,15.45508 -24.62299,-9.98458 -50.91289,-15.2199 -77.48242,-15.42969 -25.73675,-0.10003 -51.27389,4.51793 -75.3457,13.625 0.36238,-4.99154 0.93188,-9.96587 1.70703,-14.91015 0.98484,-5.94574 2.26639,-11.83852 3.83984,-17.65625 1.57234,-5.81861 3.4347,-11.55494 5.58008,-17.1875 2.1459,-5.63205 4.57211,-11.15327 7.26953,-16.54297 2.69804,-5.39032 5.66398,-10.64232 8.88672,-15.73633 3.22169,-5.09363 6.69608,-10.02296 10.41016,-14.76953 3.71454,-4.74651 7.66414,-9.30428 11.83398,-13.65625 4.16996,-4.35252 8.55499,-8.49376 13.13867,-12.4082 4.39888,-3.74038 8.97444,-7.26787 13.71094,-10.57032 z m -0.50391,149.90235 c 4.26682,0.0307 8.53121,0.21245 12.78516,0.54492 6.00923,0.46765 11.99131,1.23553 17.92383,2.30078 5.93159,1.06708 11.80612,2.43011 17.60156,4.08398 5.79586,1.65243 11.50546,3.59366 17.10742,5.81641 3.66261,1.52719 7.27394,3.17457 10.82813,4.93945 -0.15803,2.08068 -0.35207,4.15847 -0.58203,6.23243 -0.86061,5.96496 -2.01896,11.88316 -3.47071,17.73242 -1.45143,5.84973 -3.19449,11.62322 -5.22265,17.29883 -2.02762,5.67571 -4.33779,11.24646 -6.92188,16.6914 -2.58511,5.44466 -5.44089,10.75664 -8.55664,15.91602 -2.20553,3.65243 -4.53968,7.22563 -6.99805,10.71289 -3.47264,4.92684 -7.18952,9.67691 -11.13671,14.23242 -3.94723,4.55464 -8.11976,8.90903 -12.50196,13.04687 -4.38162,4.13805 -8.96742,8.0544 -13.74023,11.73438 -2.18964,1.59341 -4.41482,3.13742 -6.67383,4.63086 -2.60163,-1.73418 -5.15783,-3.53557 -7.66602,-5.40234 -4.74584,-3.7146 -9.30296,-7.6642 -13.65429,-11.83399 -4.3518,-4.16937 -8.49239,-8.55375 -12.40625,-13.13672 -3.91465,-4.58323 -7.59764,-9.35938 -11.03516,-14.31054 -3.43671,-4.95155 -6.62363,-10.07188 -9.54883,-15.3418 -2.07077,-3.73037 -4.00883,-7.53288 -5.81054,-11.40039 -2.54587,-5.46316 -4.81694,-11.05021 -6.80469,-16.74024 -1.98654,-5.69073 -3.68723,-11.47726 -5.0957,-17.33789 -1.40925,-5.85986 -2.52457,-11.78654 -3.3418,-17.75781 -0.22607,-2.16702 -0.41296,-4.33795 -0.56055,-6.51172 1.64998,-0.81374 3.31228,-1.60224 4.98633,-2.36523 5.56769,-2.3078 11.24731,-4.33572 17.01758,-6.07617 5.77022,-1.74068 11.62389,-3.19171 17.53906,-4.34766 5.91492,-1.15631 11.88396,-2.01611 17.88477,-2.57617 6.00154,-0.55929 12.02729,-0.81808 18.05468,-0.77539 z m -103.52929,31.78125 c 3.79025,24.32756 11.81673,47.80212 23.71484,69.35742 13.11986,23.52623 30.63095,44.31729 51.58399,61.24609 -3.90303,1.84924 -7.87107,3.55802 -11.89649,5.12305 -5.64699,2.10498 -11.3957,3.92626 -17.22461,5.45703 -5.83031,1.53043 -11.73352,2.76831 -17.6875,3.70898 -5.95305,0.94168 -11.94948,1.58506 -17.9668,1.92774 -6.01765,0.34158 -12.04862,0.38199 -18.07031,0.12109 -6.02168,-0.26026 -12.02658,-0.82151 -17.99219,-1.68164 -5.96562,-0.86054 -11.88447,-2.01888 -17.73437,-3.4707 -5.84973,-1.45143 -11.62322,-3.1945 -17.29883,-5.22266 -5.67574,-2.02825 -11.2465,-4.33908 -16.6914,-6.92383 l -0.0293,-0.0156 c 0.39227,-4.22214 0.93297,-8.42917 1.62109,-12.61328 1.06579,-5.93153 2.42752,-11.80605 4.08008,-17.60156 1.65371,-5.79594 3.59624,-11.50554 5.82031,-17.10743 2.22301,-5.60266 4.72484,-11.09063 7.4961,-16.44335 2.77235,-5.35229 5.81064,-10.56257 9.10351,-15.61133 3.29175,-5.04887 6.83394,-9.92997 10.61328,-14.625 3.78037,-4.69503 7.7932,-9.19806 12.02344,-13.49219 4.22905,-4.29347 8.67014,-8.37278 13.30664,-12.22266 4.25611,-3.50334 8.67023,-6.81018 13.22852,-9.91015 z m 207.99804,2.64257 c 2.59067,1.77908 5.1345,3.62541 7.62891,5.53711 4.69432,3.77979 9.19669,7.79196 13.49023,12.02149 4.29418,4.22963 8.37415,8.67138 12.22461,13.30859 3.85012,4.63671 7.46597,9.46305 10.83399,14.46094 3.36797,4.99869 6.48384,10.1627 9.33594,15.47266 2.85258,5.30953 5.43783,10.75839 7.74609,16.32617 2.3078,5.56769 4.33572,11.24731 6.07617,17.01758 1.74074,5.77087 3.19178,11.62518 4.34766,17.54101 1.06178,5.52851 1.86473,11.10359 2.40625,16.70703 -4.83192,2.21615 -9.75923,4.21809 -14.76758,6 -5.68941,1.98708 -11.47463,3.68842 -17.33398,5.09766 -5.86054,1.40865 -11.78787,2.52332 -17.75977,3.33984 -5.97167,0.81739 -11.98047,1.33561 -18.00391,1.55274 -6.0239,0.21668 -12.05487,0.13193 -18.07031,-0.25391 -6.01485,-0.38454 -12.00671,-1.06964 -17.95312,-2.05273 -5.9464,-0.98478 -11.83983,-2.26633 -17.65821,-3.83985 -5.81798,-1.57305 -11.55366,-3.43605 -17.18554,-5.58203 -3.80291,-1.51866 -7.55312,-3.16609 -11.24414,-4.93945 19.51384,-15.50639 36.12038,-34.35341 49.04687,-55.66406 13.29176,-22.16663 22.38994,-46.59045 26.83984,-72.05079 z"
       transform="scale(0.26458333)"
       id="path820"
       inkscape:connector-curvature="0"
       sodipodi:nodetypes="ccccccccccccccccccccccccccccccccccccccccccccccccccccccccccccccccccccccccccccccccccccccccccccccccccccccccccc" />
  </g>
</svg>
